<svg width="20" height="20" viewBox="0 0 20 20" fill="none" xmlns="http://www.w3.org/2000/svg">
<path fill-rule="evenodd" clip-rule="evenodd" d="M12.6212 6.00885C11.8348 5.48142 10.9102 5.1999 9.96438 5.1999V0.399902C11.856 0.399902 13.7052 0.962933 15.2781 2.0178C16.8509 3.07265 18.0768 4.57197 18.8007 6.32613C19.5246 8.08029 19.714 10.0106 19.345 11.8728C18.9759 13.735 18.065 15.4456 16.7274 16.7881C15.3898 18.1307 13.6856 19.045 11.8303 19.4154C9.975 19.7859 8.05189 19.5957 6.30425 18.8692C4.5566 18.1425 3.06285 16.9121 2.01191 15.3334C0.960964 13.7547 0.400024 11.8986 0.400024 9.9999H5.1822C5.1822 10.9492 5.46268 11.8773 5.98814 12.6666C6.51361 13.456 7.26049 14.0712 8.13434 14.4345C9.00814 14.7978 9.96969 14.8929 10.8973 14.7076C11.825 14.5225 12.6771 14.0653 13.3459 13.394C14.0147 12.7227 14.4701 11.8674 14.6546 10.9363C14.8392 10.0052 14.7445 9.0401 14.3825 8.16304C14.0206 7.28593 13.4076 6.53627 12.6212 6.00885Z" fill="white"/>
<path fill-rule="evenodd" clip-rule="evenodd" d="M5.1822 0.399905C5.1822 1.03025 5.05851 1.65442 4.81818 2.23679C4.57785 2.81915 4.2256 3.34829 3.78153 3.79402C3.33747 4.23974 2.81029 4.5933 2.23008 4.83453C1.64988 5.07575 1.02803 5.1999 0.400025 5.1999L0.400024 9.9999C1.65603 9.9999 2.89974 9.7516 4.06015 9.26915C5.22055 8.78671 6.27493 8.07957 7.16303 7.18811C8.05117 6.2967 8.75568 5.2384 9.23634 4.07367C9.717 2.90894 9.96438 1.66059 9.96438 0.399902L5.1822 0.399905Z" fill="white"/>
</svg>
